#!OML:ASF E:/inclinewalkrobotboard/Project1/Captureday1/Session1/subject1.ASF
:FULLY-SPECIFIED
:DEGREES
138
root 0 0 0 1.4026017709152636 -8.808368282396682 0.9362897890137123
lowerback 1.5179405716625172 -1.314216841775255 -2.8930529904479645
upperback -0.9640783539993822 -1.6331369178246016 2.2434872848282623
thorax -1.6167378613581622 -0.7964707918390829 3.912422978021141
lowerneck -26.73286217287057 -1.8145877917067754 -7.0967698385834685
upperneck 12.098090506811399 -0.5572683374961462 4.347243118837696
head 8.087064376373402 -0.1401871540137441 2.548494864548634
rclavicle -4.719356992327838E-15 -7.883067604891785E-16
rhumerus -32.60001109045723 -5.122086392271385 -80.39156939106903
rradius 30.139445503287817
rwrist 18.99321819867
rhand -17.53154584459498 9.487362842155902
rfingers 7.125019999999957
rthumb 8.721053556859992 -20.314604811750208
lclavicle -1.5319764818438383E-15 -1.029865718305606E-15
lhumerus -14.296791222660406 5.707995504828683 91.52581652658657
lradius 60.030542953998605
lwrist -3.6267031493153654
lhand -32.69674763508106 18.041222194541582
lfingers 7.125020000000007
lthumb -5.927476440031642 47.74075114897556
rfemur -1.594649963855817 7.361485977441762 36.69480862279704
rtibia 31.293711380904504
rfoot -15.053195468793465 -6.035394004579899
rtoes 12.616038981901259
lfemur -21.04278348783788 2.9330795771159983 -13.377037013378152
ltibia 58.73800129651174
lfoot -1.11338216260717 -6.479487704011655
ltoes -7.27630846657736
139
root 0 0 0 1.3851367435261503 -8.776528762392868 0.9204911309942739
lowerback 1.5007392322832647 -1.2909189328344215 -2.90609591784351
upperback -1.008688228469065 -1.5990046408318372 2.235919341406805
thorax -1.6545611222281154 -0.7790113168678725 3.913295759512313
lowerneck -26.521055494944946 -1.8168734730977407 -7.127140003429282
upperneck 12.21920824464085 -0.5839394506711286 4.39027755054491
head 8.10273518712757 -0.15288237416184902 2.567321609380289
rclavicle -4.381521442092844E-15 2.433558620922694E-16
rhumerus -32.33782682477757 -4.50617261238833 -80.58206997266564
rradius 30.32924837768985
rwrist 18.748515564229066
rhand -17.69338951872862 9.562081071981275
rfingers 7.125019999999956
rthumb 8.566787296044387 -20.231885354737102
lclavicle -1.6006924738857217E-15 -5.8546349794656155E-16
lhumerus -13.290885713365972 6.823410915813791 91.11335077093808
lradius 59.864747519745976
lwrist -4.157843070289218
lhand -33.01114903250127 17.71707137808515
lfingers 7.125020000000008
lthumb -6.22863775494322 47.39378290949326
rfemur 3.6012283242989938 8.233673639204742 38.07383267134049
rtibia 25.999577993261333
rfoot -19.667593645996067 -6.680235744633272
rtoes 8.479693518718408
lfemur -23.09259435953684 2.680928693345059 -13.113697701369059
ltibia 56.3568674042597
lfoot -2.3863391463414656 -5.111600062327167
ltoes -6.213134558602121
140
root 0 0 0 1.380936734638981 -8.752009784653444 0.921624747180948
lowerback 1.478274085965633 -1.2774034990023653 -2.9252800350689943
upperback -1.040088284008952 -1.5789227515531525 2.2343282504212327
thorax -1.6749089267778834 -0.768290751452297 3.9238754531277165
lowerneck -26.467003928652517 -1.8391903123039401 -7.157538170570791
upperneck 12.102913967513897 -0.6332540646800202 4.467557082821106
head 8.055047110243699 -0.16362978945998707 2.5910523749475085
rclavicle -4.143284772700464E-15 1.8326720057187814E-16
rhumerus -31.96023019014065 -3.4989719697322847 -80.76739922356967
rradius 30.549545476631852
rwrist 18.339161193287673
rhand -17.95393953209867 9.721722030862209
rfingers 7.125019999999954
rthumb 8.316640286164489 -20.076942215892835
lclavicle -1.406670887892294E-15 -5.286599431320443E-16
lhumerus -12.451846266310763 7.516851803595245 90.66046647393816
lradius 59.891545908128535
lwrist -4.4864880083155185
lhand -33.20673938586837 17.566323996875127
lfingers 7.125020000000008
lthumb -6.4157179150156 47.22906779724624
rfemur 6.021318430068453 8.569125392701498 38.453136296471015
rtibia 22.952149483659994
rfoot -21.551854848833635 -7.074855483307606
rtoes 5.03971794077745
lfemur -25.844484261904896 1.891662794044688 -12.659838138341291
ltibia 51.17518104192682
lfoot -3.5230791721004655 -3.064080792155836
ltoes -4.42839257472948
141
root 0 0 0 1.3795828937792032 -8.734727061088604 0.923043323825032
lowerback 1.4683928021717958 -1.269817501513479 -2.935138816380533
upperback -1.0542832156909527 -1.5674046616371424 2.232961606697277
thorax -1.6841865087590964 -0.7624827292398426 3.929120619049548
lowerneck -26.454646256051223 -1.8602563755774026 -7.1756812445502804
upperneck 11.99843949977622 -0.6749872360405577 4.521813665790404
head 8.017073618623943 -0.17293825994912654 2.605628651282495
rclavicle -4.657828788989094E-15 -6.935372980457181E-16
rhumerus -31.620192384868773 -2.4201146332498364 -80.89499778842449
rradius 30.73742146798081
rwrist 17.988514607423255
rhand -18.21322007950446 9.846261758098537
rfingers 7.125019999999953
rthumb 8.067094132420266 -19.96400216336707
lclavicle -1.2837897845916313E-15 -6.430435262624041E-16
lhumerus -11.95834058355161 7.945849463555166 90.35556085218374
lradius 59.868197176435935
lwrist -4.6547759573430145
lhand -33.295797816780016 17.494302929447784
lfingers 7.125020000000008
lthumb -6.5000860570464765 47.1496000018339
rfemur 7.384921101383304 8.368333096382704 38.332906797117474
rtibia 23.083057895520632
rfoot -22.345513452920827 -7.014572681590797
rtoes 2.2325069575652803
lfemur -29.227511694706823 0.31388581668716986 -11.784591306754825
ltibia 42.569487712127426
lfoot -4.454998848091505 -0.27044432611046787
ltoes -2.1553953302868933
142
root 0 0 0 1.378927690749355 -8.723131855185427 0.9200185793757903
lowerback 1.4634250772315116 -1.2637149910037433 -2.937652518711105
upperback -1.0598837023347174 -1.5580311166091805 2.2286702587170635
thorax -1.686923962274411 -0.7585185457731027 3.9274026881457478
lowerneck -26.42140363205508 -1.8772376290513253 -7.190768715105166
upperneck 11.990361842145418 -0.7084750843895463 4.553178461276659
head 8.011400151440919 -0.183925531339444 2.6141283215241957
rclavicle -5.70355210643914E-15 -1.5561096077282104E-15
rhumerus -31.385072779725807 -1.535713400300275 -80.95468811610596
rradius 30.863725350186183
rwrist 17.7776708046743
rhand -18.412010354808306 9.917819326155126
rfingers 7.125019999999954
rthumb 7.87566763340044 -19.910038265636793
lclavicle -1.5844337418162042E-15 -7.922113505233626E-16
lhumerus -11.605501834911124 8.409844341138658 90.13325812948936
lradius 59.71413539787025
lwrist -4.793960863410597
lhand -33.35285245984473 17.403034226953743
lfingers 7.125020000000007
lthumb -6.552511427720196 47.05235443436312
rfemur 10.490028619727289 7.91251280913183 36.97594022920405
rtibia 26.027365679501244
rfoot -20.520386698402916 -5.6769730396245635
rtoes -2.3578098069507174
lfemur -31.888937472926774 -3.193580084977988 -9.743147794489616
ltibia 28.0796151802125
lfoot -4.793652014004004 3.1572459744868104
ltoes -1.4011325328315412
143
root 0 0 0 1.3799093032478815 -8.730045309269205 0.9175512334033036
lowerback 1.4474692275813819 -1.2617747449161163 -2.940213038454253
upperback -1.0668282557342343 -1.5553863788540856 2.2245728907739597
thorax -1.6846703344480156 -0.7574484340696509 3.925457347017741
lowerneck -26.378166747677977 -1.8779536326664528 -7.203850322332928
upperneck 12.085046834917339 -0.7093723793772712 4.552267285549566
head 8.041722127038973 -0.1885716556154011 2.6172221519987384
rclavicle -6.514995476249801E-15 -1.7236488328507549E-15
rhumerus -31.35024515440136 -1.3627216047761221 -80.94740130034184
rradius 30.876805068701522
rwrist 17.748795213362747
rhand -18.44894801386929 9.931303552478363
rfingers 7.125019999999955
rthumb 7.839894812799236 -19.902131561116946
lclavicle -2.0905819762420526E-15 -8.29688773503304E-16
lhumerus -11.198739880823847 8.774707216271594 89.88970396082516
lradius 59.70315609003043
lwrist -4.942372968257419
lhand -33.4356339585412 17.326890889135708
lfingers 7.125020000000008
lthumb -6.630005803678113 46.97074622706208
rfemur 13.109806053407903 7.256828646220254 34.45240258703724
rtibia 31.909388732858257
rfoot -15.788860207795928 -3.7645216830893005
rtoes -5.408829809853021
lfemur -31.28215080297268 -4.309465825987147 -9.465458416869206
ltibia 24.06473718079834
lfoot -4.728428729327616 3.576941245598668
ltoes -1.7873467616729544
144
root 0 0 0 1.3814481004979182 -8.745189532390285 0.917161424598597
lowerback 1.418655168088492 -1.2607996624952136 -2.9468105530255966
upperback -1.08029143692097 -1.5544295961084336 2.2204343362707792
thorax -1.6819004235255066 -0.7567213060677472 3.925741153651903
lowerneck -26.33439846069617 -1.8758190419054794 -7.2214080026771885
upperneck 12.202783436950673 -0.7026641120947767 4.548584953683991
head 8.081009769932518 -0.19186657576902255 2.6215988114215882
rclavicle -7.4269460880283E-15 -1.6585648746673742E-15
rhumerus -31.361444519679594 -1.3724989338562699 -80.92252642777464
rradius 30.85914882990395
rwrist 17.747047696164824
rhand -18.44738936305165 9.940945055253799
rfingers 7.125019999999954
rthumb 7.841160315039162 -19.89552899562727
lclavicle -2.6647151775921024E-15 -7.732821092706819E-16
lhumerus -10.623815818087616 9.15850332825794 89.53751481984114
lradius 59.78457257108522
lwrist -5.115356112179471
lhand -33.54224866636212 17.26745308117016
lfingers 7.125020000000008
lthumb -6.73108380829786 46.904541826331155
rfemur 12.22557800015736 5.855598382500574 31.979176485314653
rtibia 40.85014304873311
rfoot -9.906516240621583 -1.6554678764002162
rtoes -5.156481415606981
lfemur -29.217426557079957 -4.571968032723873 -10.664469111651645
ltibia 23.994486481992688
lfoot -3.951087978982037 2.4468860134537835
ltoes -0.6310316352257814
